<?xml version="1.0" encoding="UTF-8" standalone="no"?>
<svg
   xmlns:dc="http://purl.org/dc/elements/1.1/"
   xmlns:cc="http://creativecommons.org/ns#"
   xmlns:rdf="http://www.w3.org/1999/02/22-rdf-syntax-ns#"
   xmlns:svg="http://www.w3.org/2000/svg"
   xmlns="http://www.w3.org/2000/svg"
   xmlns:sodipodi="http://sodipodi.sourceforge.net/DTD/sodipodi-0.dtd"
   xmlns:inkscape="http://www.inkscape.org/namespaces/inkscape"
   height="503.8533"
   viewBox="0 0 54.968265 60.029397"
   width="469.06253"
   version="1.1"
   id="svg13"
   sodipodi:docname="astronaut.svg"
   inkscape:version="0.92.3 (2405546, 2018-03-11)">
  <metadata
     id="metadata19">
    <rdf:RDF>
      <cc:Work
         rdf:about="">
        <dc:format>image/svg+xml</dc:format>
        <dc:type
           rdf:resource="http://purl.org/dc/dcmitype/StillImage" />
      </cc:Work>
    </rdf:RDF>
  </metadata>
  <defs
     id="defs17" />
  <sodipodi:namedview
     pagecolor="#ffffff"
     bordercolor="#666666"
     borderopacity="1"
     objecttolerance="10"
     gridtolerance="10"
     guidetolerance="10"
     inkscape:pageopacity="0"
     inkscape:pageshadow="2"
     inkscape:window-width="1920"
     inkscape:window-height="1007"
     id="namedview15"
     showgrid="false"
     inkscape:zoom="0.4609375"
     inkscape:cx="251.90409"
     inkscape:cy="256"
     inkscape:window-x="0"
     inkscape:window-y="39"
     inkscape:window-maximized="1"
     inkscape:current-layer="015---Astronaut" />
  <g
     id="015---Astronaut"
     transform="translate(-1.4879888,-0.97060368)">
    <path
       id="Shape"
       d="m 38.45,19.1 c -0.242652,-0.107585 -0.518122,-0.114284 -0.765718,-0.01862 -0.247595,0.09566 -0.447,0.285836 -0.554282,0.528623 -1.433206,3.273057 -4.666909,5.388307 -8.24,5.39 -0.552285,0 -1,0.447715 -1,1 0,0.552285 0.447715,1 1,1 4.381747,0.01302 8.35333,-2.575778 10.11,-6.59 0.102074,-0.246532 0.101388,-0.523634 -0.0019,-0.769658 C 38.894803,19.394317 38.697471,19.199777 38.45,19.1 Z"
       inkscape:connector-curvature="0" />
    <path
       id="path3"
       d="m 54.69,17.44 c -1.966423,-0.995896 -4.367927,-0.213283 -5.37,1.75 -2.208024,3.819176 -5.741696,6.69451 -9.93,8.08 -0.116694,0.02966 -0.240506,0.0078 -0.34,-0.06 C 39.01222,27.1726 38.98171,27.12852 38.96,27.08 44.765751,21.811893 45.535554,12.961563 40.726551,6.7701834 35.917548,0.57880397 27.151932,-0.86512243 20.611138,3.4566484 14.070344,7.7784192 11.96074,16.408049 15.77,23.26 14.485816,23.292513 13.295385,23.93981 12.57,25 10.5834,27.594274 7.7167433,29.372597 4.51,30 2.6169957,30.272323 1.1619897,31.814381 1,33.72 0.83500372,35.86 2.3884001,37.748789 4.52,38 c 1.33,0.16 5.42,-0.79 9,-3.06 -0.80745,1.893461 -1.907546,3.648215 -3.26,5.2 -3.4295902,3.807897 -5.353051,8.735654 -5.41,13.86 0,2.761424 2.2385762,5 5,5 2.778911,-0.03293 5.01118,-2.300916 5,-5.08 0.0185,-1.951371 0.5794,-3.859138 1.62,-5.51 0.784303,0.48975 1.636915,0.860451 2.53,1.1 -0.679338,2.098904 -1.053167,4.284628 -1.11,6.49 0,2.761424 2.238576,5 5,5 2.761424,0 5,-2.238576 5,-5 0.03075,-2.677328 1.036963,-5.251521 2.83,-7.24 3.218485,-3.714974 5.520195,-8.133435 6.72,-12.9 8.037149,-1.109728 15.079487,-5.946702 19,-13.05 0.995896,-1.966423 0.213283,-4.367927 -1.75,-5.37 z m -6.92,7 c 0.81409,1.061352 1.765773,2.009672 2.83,2.82 -0.53,0.53 -1.12,1.06 -1.76,1.59 -1.118674,-0.785065 -2.047947,-1.809999 -2.72,-3 0.576976,-0.437483 1.127914,-0.908284 1.65,-1.41 z M 28.89,29 c -2.091503,-5.85e-4 -4.151203,-0.512077 -6,-1.49 -1.608225,-3.862281 -2.293047,-8.046545 -2,-12.22 0.7,-1.37 6.29,-11.23 19.4,-5.57 2.223354,4.029825 2.150212,8.934882 -0.192311,12.896621 C 37.755167,26.578361 33.492473,29.006193 28.89,29 Z m 0,-26 C 32.330276,2.99732 35.630006,4.3647099 38.06,6.8 24.64,2.88 19,14.45 19,14.58 18.69,15.25 18.49,20.25 20.06,25.5 16.164485,21.861192 14.885176,16.21299 16.832571,11.250771 18.779966,6.2885529 23.559368,3.0180586 28.89,3 Z M 9.61,30.25 c 0.488371,1.289714 0.823992,2.632195 1,4 C 10.085401,34.507195 9.5480374,34.737494 9,34.94 8.8297441,33.613271 8.4937899,32.313128 8,31.07 8.5521643,30.828225 9.0897452,30.554426 9.61,30.25 Z M 5.3,36 C 4.6926967,36.094517 4.0756594,35.904555 3.6266671,35.484844 3.1776748,35.065134 2.9465929,34.462289 3,33.85 3.1316375,32.884333 3.8936373,32.12643 4.86,32 c 0.42,-0.08 0.83,-0.17 1.22,-0.28 0.5296341,1.231149 0.8669045,2.536386 1,3.87 C 6.5,35.74 5.91,35.87 5.3,36 Z m 4.92,21 C 9.3624655,57.106602 8.5006104,56.83825 7.8551707,56.263675 7.2097309,55.689099 6.8433994,54.86411 6.85,54 c 0,-0.11 0,-0.21 0,-0.32 1.935467,-0.718515 4.064533,-0.718515 6,0 v 0.26 c -0.01453,1.524357 -1.125138,2.816551 -2.63,3.06 z m 13,2 C 22.362465,59.106602 21.50061,58.83825 20.855171,58.263675 20.209731,57.689099 19.843399,56.86411 19.85,56 c 0,-0.11 0,-0.22 0,-0.34 1.93417,-0.725702 4.06583,-0.725702 6,0 V 56 c -0.01162,1.499538 -1.108204,2.769717 -2.59,3 z M 36.5,34 c -0.415169,0.04586 -0.758101,0.344926 -0.86,0.75 -1.087992,4.70283 -3.30137,9.071249 -6.45,12.73 -1.562485,1.745177 -2.632426,3.874706 -3.1,6.17 -1.963778,-0.628087 -4.070301,-0.655942 -6.05,-0.08 0.191846,-1.259824 0.51356,-2.496411 0.96,-3.69 0.640409,0.07797 1.284865,0.118042 1.93,0.12 0.552285,0 1,-0.447715 1,-1 0,-0.552285 -0.447715,-1 -1,-1 -3.32,0 -5.09,-0.94 -6,-1.81 -0.43964,-0.396708 -0.781845,-0.889483 -1,-1.44 C 15.87283,44.470847 15.699291,44.229341 15.452953,44.086121 15.206615,43.942901 14.910878,43.911572 14.64,44 c -0.531397,0.137392 -0.852737,0.677421 -0.72,1.21 0.204844,0.674911 0.545103,1.300987 1,1.84 -0.904357,1.373323 -1.53585,2.907919 -1.86,4.52 C 11.088109,50.959579 8.979777,50.945663 7,51.53 c 0.5238313,-3.754345 2.1489751,-7.26911 4.67,-10.1 2.264133,-2.636649 3.910875,-5.745643 4.82,-9.1 0.11666,-0.429433 -0.06448,-0.884287 -0.444417,-1.115956 C 15.665646,30.982375 15.178337,31.029638 14.85,31.33 c -0.749577,0.683703 -1.555801,1.302589 -2.41,1.85 -0.238161,-1.374284 -0.634113,-2.716495 -1.18,-4 1.11231,-0.838621 2.098965,-1.832011 2.93,-2.95 0.494824,-0.747505 1.426597,-1.074443 2.28,-0.8 0.21366,0.07469 0.44634,0.07469 0.66,0 1.808946,2.277426 4.240967,3.979841 7,4.9 -1.837651,2.03275 -3.158277,4.478481 -3.85,7.13 -0.611294,-0.276143 -1.183006,-0.632622 -1.7,-1.06 -0.390038,-0.387724 -1.019963,-0.387724 -1.41,0 -0.189313,0.187767 -0.295798,0.443363 -0.295798,0.71 0,0.266638 0.106485,0.522233 0.295798,0.71 0.810598,0.704884 1.73331,1.269327 2.73,1.67 -0.140643,1.239356 -0.140643,2.490644 0,3.73 0.05632,0.508935 0.487968,0.893106 1,0.89 0.285423,0.0017 0.557984,-0.118585 0.749032,-0.330647 C 21.840079,43.56729 21.931402,43.283696 21.9,43 c -0.08949,-0.934529 -0.08949,-1.875471 0,-2.81 2.27771,0.63799 4.634789,0.947777 7,0.92 0.552285,0 1,-0.447715 1,-1 0,-0.552285 -0.447715,-1 -1,-1 -2.273582,0.03405 -4.539228,-0.276132 -6.72,-0.92 0.681707,-2.784353 2.137872,-5.318775 4.2,-7.31 3.843608,0.670588 7.796571,-0.202657 11,-2.43 0.600746,0.803154 1.645013,1.136517 2.6,0.83 1.587858,-0.498291 3.10144,-1.207993 4.5,-2.11 0.700577,1.150694 1.601447,2.166712 2.66,3 -3.164676,2.118938 -6.808053,3.414743 -10.6,3.77 z M 54.63,22 c -0.732558,1.351291 -1.614769,2.615906 -2.63,3.77 -1.083536,-0.792437 -2.03524,-1.750891 -2.82,-2.84 0.735116,-0.875983 1.384742,-1.820285 1.94,-2.82 0.495538,-0.98439 1.694036,-1.382398 2.68,-0.89 0.97111,0.50254 1.358627,1.691815 0.87,2.67 z"
       inkscape:connector-curvature="0" />
    <circle
       id="Oval"
       cx="38.889999"
       cy="16"
       r="1" />
  </g>
</svg>
