<?xml version="1.0" encoding="UTF-8" standalone="no"?>
<svg
   xmlns:dc="http://purl.org/dc/elements/1.1/"
   xmlns:cc="http://creativecommons.org/ns#"
   xmlns:rdf="http://www.w3.org/1999/02/22-rdf-syntax-ns#"
   xmlns:svg="http://www.w3.org/2000/svg"
   xmlns="http://www.w3.org/2000/svg"
   id="svg2039"
   version="1.1"
   viewBox="0 0 84.585327 93.51265"
   height="93.51265mm"
   width="84.585327mm">
  <defs
     id="defs2033" />
  <metadata
     id="metadata2036">
    <rdf:RDF>
      <cc:Work
         rdf:about="">
        <dc:format>image/svg+xml</dc:format>
        <dc:type
           rdf:resource="http://purl.org/dc/dcmitype/StillImage" />
        <dc:title></dc:title>
      </cc:Work>
    </rdf:RDF>
  </metadata>
  <g
     transform="translate(-124.77281,178.38133)"
     id="layer1">
    <path
       id="path540"
       style="fill:#000000;fill-opacity:1;fill-rule:nonzero;stroke:none;stroke-width:0.03527778"
       d="m 166.70544,-164.58489 v 13.68848 c 0,0.46355 0.72038,0.46425 0.72038,0 v -13.68848 c 0,-0.46355 -0.72038,-0.46426 -0.72038,0" />
    <path
       id="path542"
       style="fill:#000000;fill-opacity:1;fill-rule:nonzero;stroke:none;stroke-width:0.03527778"
       d="m 166.70544,-178.03208 v 6.24417 c 0,0.46214 0.72038,0.46214 0.72038,0 v -6.24417 c 0,-0.46566 -0.72038,-0.46566 -0.72038,0" />
    <path
       id="path544"
       style="fill:#000000;fill-opacity:1;fill-rule:nonzero;stroke:none;stroke-width:0.03527778"
       d="m 138.34105,-147.79303 11.85475,6.84425 c 0.40146,0.23177 0.76235,-0.39159 0.36018,-0.62407 l -11.85474,-6.84389 c -0.40111,-0.23177 -0.762,0.39159 -0.36019,0.62371" />
    <path
       id="path546"
       style="fill:#000000;fill-opacity:1;fill-rule:nonzero;stroke:none;stroke-width:0.03527778"
       d="m 126.6948,-154.51697 5.40703,3.12173 c 0.40146,0.23177 0.76235,-0.39158 0.36053,-0.62371 l -5.40737,-3.12208 c -0.40182,-0.23178 -0.76236,0.39158 -0.36019,0.62406" />
    <path
       id="path548"
       style="fill:#000000;fill-opacity:1;fill-rule:nonzero;stroke:none;stroke-width:0.03527778"
       d="m 138.70124,-114.833 11.85474,-6.84424 c 0.40146,-0.23178 0.0416,-0.85619 -0.36018,-0.62371 l -11.85475,6.84389 c -0.40111,0.23213 -0.0416,0.85619 0.36019,0.62406" />
    <path
       id="path550"
       style="fill:#000000;fill-opacity:1;fill-rule:nonzero;stroke:none;stroke-width:0.03527778"
       d="m 127.05499,-108.1087 5.40737,-3.12208 c 0.40111,-0.23178 0.0416,-0.8562 -0.36053,-0.62407 l -5.40703,3.12208 c -0.40181,0.23178 -0.042,0.8562 0.36019,0.62407" />
    <path
       id="path552"
       style="fill:#000000;fill-opacity:1;fill-rule:nonzero;stroke:none;stroke-width:0.03527778"
       d="m 167.42582,-98.664841 v -13.688479 c 0,-0.46355 -0.72038,-0.46426 -0.72038,0 v 13.688479 c 0,0.46355 0.72038,0.464257 0.72038,0" />
    <path
       id="path554"
       style="fill:#000000;fill-opacity:1;fill-rule:nonzero;stroke:none;stroke-width:0.03527778"
       d="m 167.42582,-85.216599 v -6.243815 c 0,-0.46355 -0.72038,-0.464254 -0.72038,0 v 6.243815 c 0,0.46355 0.72038,0.464254 0.72038,0" />
    <path
       id="path556"
       style="fill:#000000;fill-opacity:1;fill-rule:nonzero;stroke:none;stroke-width:0.03527778"
       d="m 195.78985,-115.45706 -11.85474,-6.84389 c -0.40111,-0.23178 -0.76235,0.39158 -0.36019,0.62371 l 11.85475,6.84424 c 0.40146,0.23178 0.76235,-0.39158 0.36018,-0.62406" />
    <path
       id="path558"
       style="fill:#000000;fill-opacity:1;fill-rule:nonzero;stroke:none;stroke-width:0.03527778"
       d="m 207.4354,-108.73277 -5.40632,-3.12208 c -0.40146,-0.23177 -0.76235,0.39194 -0.36018,0.62407 l 5.40667,3.12208 c 0.40217,0.23177 0.762,-0.39194 0.35983,-0.62407" />
    <path
       id="path560"
       style="fill:#000000;fill-opacity:1;fill-rule:nonzero;stroke:none;stroke-width:0.03527778"
       d="m 195.42967,-148.41674 -11.85475,6.84389 c -0.40146,0.23178 -0.0416,0.85619 0.36019,0.62407 l 11.85474,-6.84425 c 0.40146,-0.23177 0.042,-0.85619 -0.36018,-0.62371" />
    <path
       id="path562"
       style="fill:#000000;fill-opacity:1;fill-rule:nonzero;stroke:none;stroke-width:0.03527778"
       d="m 207.07557,-155.14103 -5.40667,3.12208 c -0.40146,0.23177 -0.042,0.85584 0.36018,0.62371 l 5.40632,-3.12173 c 0.40217,-0.23177 0.0423,-0.85619 -0.35983,-0.62406" />
    <path
       id="path564"
       style="fill:#000000;fill-opacity:1;fill-rule:nonzero;stroke:none;stroke-width:0.03527778"
       d="m 154.21147,-115.94813 3.88302,-4.57835 c 0.30021,-0.35384 -0.24906,-0.82021 -0.54927,-0.46602 l -3.88338,4.57835 c -0.29986,0.35348 0.24906,0.82021 0.54963,0.46602" />
    <path
       id="path566"
       style="fill:#000000;fill-opacity:1;fill-rule:nonzero;stroke:none;stroke-width:0.03527778"
       d="m 139.76486,-98.915666 11.65049,-13.735754 c 0.29951,-0.35349 -0.24906,-0.82021 -0.54963,-0.46602 l -11.65013,13.735756 c -0.29986,0.353483 0.24906,0.820208 0.54927,0.466018" />
    <path
       id="path568"
       style="fill:#000000;fill-opacity:1;fill-rule:nonzero;stroke:none;stroke-width:0.03527778"
       d="m 174.24572,-112.67223 -2.02354,-5.65221 c -0.15628,-0.43639 -0.83467,-0.19438 -0.67839,0.24271 l 2.02354,5.65256 c 0.15627,0.43639 0.83502,0.19438 0.67839,-0.24306" />
    <path
       id="path570"
       style="fill:#000000;fill-opacity:1;fill-rule:nonzero;stroke:none;stroke-width:0.03527778"
       d="m 181.77329,-91.645268 -6.0706,-16.956972 c -0.15628,-0.43674 -0.83503,-0.19438 -0.67839,0.24271 l 6.0706,16.957324 c 0.15628,0.436388 0.83467,0.194382 0.67839,-0.243062" />
    <path
       id="path572"
       style="fill:#000000;fill-opacity:1;fill-rule:nonzero;stroke:none;stroke-width:0.03527778"
       d="m 187.09988,-128.3846 -5.90656,-1.07386 c -0.45614,-0.0829 -0.58596,0.62583 -0.12912,0.70908 l 5.90691,1.07386 c 0.45615,0.0829 0.58562,-0.62583 0.12877,-0.70908" />
    <path
       id="path574"
       style="fill:#000000;fill-opacity:1;fill-rule:nonzero;stroke:none;stroke-width:0.03527778"
       d="m 209.07229,-124.3901 -17.71932,-3.22122 c -0.45614,-0.0829 -0.58561,0.62583 -0.12877,0.70874 l 17.72109,3.22156 c 0.45508,0.0829 0.58561,-0.62583 0.127,-0.70908" />
    <path
       id="path576"
       style="fill:#000000;fill-opacity:1;fill-rule:nonzero;stroke:none;stroke-width:0.03527778"
       d="m 179.91979,-147.37287 -3.88337,4.5787 c -0.29987,0.35349 0.24906,0.82021 0.54927,0.46603 l 3.88338,-4.57871 c 0.29986,-0.35348 -0.24906,-0.82021 -0.54928,-0.46602" />
    <path
       id="path578"
       style="fill:#000000;fill-opacity:1;fill-rule:nonzero;stroke:none;stroke-width:0.03527778"
       d="m 194.36604,-164.40533 -11.65048,13.73611 c -0.29951,0.35348 0.24941,0.81985 0.54963,0.46566 l 11.65013,-13.73575 c 0.29986,-0.35348 -0.24906,-0.82021 -0.54928,-0.46602" />
    <path
       id="path580"
       style="fill:#000000;fill-opacity:1;fill-rule:nonzero;stroke:none;stroke-width:0.03527778"
       d="m 159.88519,-150.64876 2.02354,5.65256 c 0.15627,0.43638 0.83502,0.19438 0.67839,-0.24307 l -2.02354,-5.6522 c -0.15628,-0.43639 -0.83467,-0.19438 -0.67839,0.24271" />
    <path
       id="path582"
       style="fill:#000000;fill-opacity:1;fill-rule:nonzero;stroke:none;stroke-width:0.03527778"
       d="m 152.35797,-171.67502 6.07025,16.95661 c 0.15628,0.43639 0.83502,0.19438 0.67839,-0.24271 l -6.07025,-16.95732 c -0.15628,-0.43744 -0.83502,-0.19403 -0.67839,0.24342" />
    <path
       id="path584"
       style="fill:#000000;fill-opacity:1;fill-rule:nonzero;stroke:none;stroke-width:0.03527778"
       d="m 147.03103,-134.93639 5.90691,1.07385 c 0.45614,0.0829 0.58561,-0.62583 0.12876,-0.70873 l -5.90691,-1.07385 c -0.45614,-0.0829 -0.58561,0.62583 -0.12876,0.70873" />
    <path
       id="path586"
       style="fill:#000000;fill-opacity:1;fill-rule:nonzero;stroke:none;stroke-width:0.03527778"
       d="m 125.05756,-138.93089 17.72038,3.22156 c 0.45614,0.0829 0.58596,-0.62583 0.12912,-0.70908 l -17.72074,-3.22122 c -0.45614,-0.0829 -0.58561,0.62583 -0.12876,0.70874" />
    <path
       id="path588"
       style="fill:#000000;fill-opacity:1;fill-rule:nonzero;stroke:none;stroke-width:0.03527778"
       d="m 145.45834,-156.94902 11.70482,14.00351 c 0.29739,0.3556 0.85054,-0.10583 0.5528,-0.46213 l -11.70481,-14.00352 c -0.29739,-0.3556 -0.8509,0.10583 -0.55281,0.46214" />
    <path
       id="path590"
       style="fill:#000000;fill-opacity:1;fill-rule:nonzero;stroke:none;stroke-width:0.03527778"
       d="m 140.37552,-163.0295 2.61832,3.13232 c 0.29739,0.3556 0.85055,-0.10584 0.5528,-0.46214 l -2.61832,-3.13232 c -0.29703,-0.3556 -0.85019,0.10584 -0.5528,0.46214" />
    <path
       id="path592"
       style="fill:#000000;fill-opacity:1;fill-rule:nonzero;stroke:none;stroke-width:0.03527778"
       d="m 134.36137,-125.59237 17.97967,-3.13478 c 0.45685,-0.0797 0.33408,-0.78952 -0.12347,-0.70979 l -17.98003,3.13514 c -0.45649,0.0794 -0.33373,0.78951 0.12383,0.70943" />
    <path
       id="path594"
       style="fill:#000000;fill-opacity:1;fill-rule:nonzero;stroke:none;stroke-width:0.03527778"
       d="m 126.55404,-124.231 4.02202,-0.70132 c 0.45685,-0.0794 0.33373,-0.78952 -0.12382,-0.70944 l -4.02167,0.70097 c -0.45685,0.0797 -0.33373,0.78952 0.12347,0.70979" />
    <path
       id="path596"
       style="fill:#000000;fill-opacity:1;fill-rule:nonzero;stroke:none;stroke-width:0.03527778"
       d="m 155.96865,-100.30349 6.27486,-17.13865 c 0.15946,-0.43533 -0.51682,-0.68369 -0.67663,-0.24765 l -6.27485,17.13865 c -0.15946,0.43532 0.51681,0.683681 0.67662,0.24765" />
    <path
       id="path598"
       style="fill:#000000;fill-opacity:1;fill-rule:nonzero;stroke:none;stroke-width:0.03527778"
       d="m 153.2438,-92.861999 1.4037,-3.833635 c 0.15945,-0.434975 -0.51682,-0.683684 -0.67663,-0.24765 l -1.40335,3.833635 c -0.15945,0.435327 0.51682,0.683683 0.67628,0.24765" />
    <path
       id="path600"
       style="fill:#000000;fill-opacity:1;fill-rule:nonzero;stroke:none;stroke-width:0.03527778"
       d="m 188.67291,-106.37198 -11.70516,-14.00351 c -0.29739,-0.3556 -0.85055,0.10583 -0.5528,0.46214 l 11.70516,14.00351 c 0.29739,0.3556 0.85055,-0.10583 0.5528,-0.46214" />
    <path
       id="path602"
       style="fill:#000000;fill-opacity:1;fill-rule:nonzero;stroke:none;stroke-width:0.03527778"
       d="m 193.75539,-100.2915 -2.61832,-3.13231 c -0.29739,-0.3556 -0.85055,0.10583 -0.55281,0.46214 l 2.61832,3.132311 c 0.29739,0.3556 0.85055,-0.105834 0.55281,-0.462141" />
    <path
       id="path604"
       style="fill:#000000;fill-opacity:1;fill-rule:nonzero;stroke:none;stroke-width:0.03527778"
       d="m 199.76989,-137.72863 -17.98002,3.13514 c -0.45685,0.0797 -0.33373,0.78951 0.12382,0.70979 l 17.97967,-3.13514 c 0.45685,-0.0797 0.33373,-0.78952 -0.12347,-0.70979" />
    <path
       id="path606"
       style="fill:#000000;fill-opacity:1;fill-rule:nonzero;stroke:none;stroke-width:0.03527778"
       d="m 207.57651,-139.09 -4.02166,0.70132 c -0.4565,0.0797 -0.33373,0.78952 0.12382,0.70979 l 4.02132,-0.70132 c 0.45861,-0.0797 0.33513,-0.78952 -0.12348,-0.70979" />
    <path
       id="path608"
       style="fill:#000000;fill-opacity:1;fill-rule:nonzero;stroke:none;stroke-width:0.03527778"
       d="m 178.16261,-163.01715 -6.27486,17.13865 c -0.15981,0.43533 0.51647,0.68368 0.67628,0.24765 l 6.27485,-17.13865 c 0.15946,-0.43533 -0.51682,-0.68368 -0.67627,-0.24765" />
    <path
       id="path610"
       style="fill:#000000;fill-opacity:1;fill-rule:nonzero;stroke:none;stroke-width:0.03527778"
       d="m 180.88711,-170.45794 -1.4037,3.83117 c -0.15946,0.43674 0.51682,0.68509 0.67663,0.24906 l 1.40335,-3.83328 c 0.15945,-0.43745 -0.51683,-0.68439 -0.67628,-0.24695" />
  </g>
</svg>
