<?xml version="1.0" encoding="UTF-8" standalone="no"?>
<svg
   xmlns:dc="http://purl.org/dc/elements/1.1/"
   xmlns:cc="http://creativecommons.org/ns#"
   xmlns:rdf="http://www.w3.org/1999/02/22-rdf-syntax-ns#"
   xmlns:svg="http://www.w3.org/2000/svg"
   xmlns="http://www.w3.org/2000/svg"
   viewBox="0 0 758.66903 128.51466"
   height="128.51466"
   width="758.66907"
   xml:space="preserve"
   id="svg2"
   version="1.1"><metadata
     id="metadata8"><rdf:RDF><cc:Work
         rdf:about=""><dc:format>image/svg+xml</dc:format><dc:type
           rdf:resource="http://purl.org/dc/dcmitype/StillImage" /><dc:title></dc:title></cc:Work></rdf:RDF></metadata><defs
     id="defs6"><clipPath
       id="clipPath18"
       clipPathUnits="userSpaceOnUse"><path
         id="path16"
         d="M 0,400 H 800 V 0 H 0 Z" /></clipPath><clipPath
       id="clipPath30"
       clipPathUnits="userSpaceOnUse"><path
         id="path28"
         d="m 115.499,200 c 0,-26.616 21.576,-48.193 48.193,-48.193 v 0 c 26.617,0 48.193,21.577 48.193,48.193 v 0 c 0,26.616 -21.576,48.193 -48.193,48.193 v 0 c -26.617,0 -48.193,-21.577 -48.193,-48.193" /></clipPath><clipPath
       id="clipPath42"
       clipPathUnits="userSpaceOnUse"><path
         id="path40"
         d="M 0,400 H 800 V 0 H 0 Z" /></clipPath></defs><g
     transform="matrix(1.3333333,0,0,-1.3333333,-153.99866,330.92399)"
     id="g10"><g
       id="g925"><g
         id="g12"><g
           id="g14"
           clip-path="url(#clipPath18)"><g
             id="g20"
             transform="translate(211.885,200)"><path
               d="m 0,0 c 0,-26.616 -21.577,-48.193 -48.193,-48.193 -26.616,0 -48.193,21.577 -48.193,48.193 0,26.616 21.577,48.193 48.193,48.193 C -21.577,48.193 0,26.616 0,0"
               style="fill:#c60e51;fill-opacity:1;fill-rule:nonzero;stroke:none"
               id="path22" /></g></g></g><g
         id="g24"><g
           id="g26"
           clip-path="url(#clipPath30)"><g
             id="g32"
             transform="translate(199.2063,183.7788)"><path
               d="m 0,0 c 0,-26.616 -21.577,-48.193 -48.193,-48.193 -26.616,0 -48.193,21.577 -48.193,48.193 0,26.616 21.577,48.193 48.193,48.193 C -21.577,48.193 0,26.616 0,0"
               style="fill:#ff0d4d;fill-opacity:1;fill-rule:nonzero;stroke:none"
               id="path34" /></g></g></g><g
         id="g36"><g
           id="g38"
           clip-path="url(#clipPath42)"><g
             id="g44"
             transform="translate(170.1399,185.3893)"><path
               d="m 0,0 -13.209,-13.209 c -2.434,-2.434 -6.576,-0.472 -6.236,2.952 l 1.11,11.166 c 0.233,2.348 -1.783,4.301 -4.123,3.994 l -9.951,-1.309 c -3.469,-0.456 -5.542,3.748 -3.067,6.222 l 12.83,12.83 c 1.43,1.431 3.75,1.431 5.18,0 L 0,5.18 C 1.43,3.75 1.43,1.43 0,0"
               style="fill:#ffffff;fill-opacity:1;fill-rule:nonzero;stroke:none"
               id="path46" /></g><g
             id="g48"
             transform="translate(174.0539,197.6606)"><path
               d="m 0,0 -14.33,14.329 c -1.912,1.913 -1.163,5.168 1.393,6.052 L 8.732,27.88 c 2.875,0.994 5.639,-1.746 4.67,-4.629 L 6.062,1.423 C 5.196,-1.154 1.922,-1.922 0,0"
               style="fill:#ffffff;fill-opacity:1;fill-rule:nonzero;stroke:none"
               id="path50" /></g><g
             id="g52"
             transform="translate(314.945,174.416)"><path
               d="m 0,0 h -14.903 c 0,0.587 0,1.113 0,1.639 0,8.854 0.034,17.708 -0.029,26.562 -0.012,1.711 -0.177,3.485 -0.66,5.116 -0.972,3.283 -3.278,5.031 -6.452,5.207 -3.466,0.193 -6.219,-1.224 -7.564,-4.375 -0.863,-2.022 -1.253,-4.379 -1.29,-6.596 -0.142,-8.604 -0.058,-17.212 -0.058,-25.818 0,-0.535 0,-1.07 0,-1.705 h -15.042 v 1.626 c 0,8.953 0.017,17.906 -0.018,26.859 -0.006,1.323 -0.129,2.674 -0.419,3.962 -0.797,3.526 -3.138,5.646 -6.458,6.024 -3.448,0.393 -6.797,-1.265 -8.108,-4.478 -0.761,-1.867 -1.17,-4.001 -1.2,-6.023 -0.126,-8.704 -0.054,-17.41 -0.054,-26.116 0,-0.584 0,-1.169 0,-1.959 h -3.94 c -3.215,0 -6.433,0.075 -9.644,-0.034 -1.449,-0.049 -1.574,0.603 -1.572,1.769 0.027,14.888 0.018,29.776 0.018,44.665 0,1.286 -0.064,2.578 0.049,3.854 0.032,0.366 0.578,0.979 0.896,0.984 4.344,0.065 8.689,0.044 13.277,0.044 0,-1.508 -0.022,-2.918 0.015,-4.327 0.009,-0.354 0.206,-0.702 0.317,-1.054 0.323,0.167 0.76,0.249 0.953,0.511 5.804,7.893 16.918,7.433 23.582,3.33 1.355,-0.835 2.479,-2.108 3.552,-3.318 0.783,-0.883 1.263,-1.039 2.067,-0.059 4.22,5.14 9.862,6.644 16.206,6.08 5.279,-0.47 9.822,-2.454 13.118,-6.828 2.555,-3.39 3.47,-7.244 3.468,-11.401 C 0.099,23.012 0.106,11.883 0.103,0.753 0.103,0.559 0.052,0.365 0,0"
               style="fill:#ff0d4d;fill-opacity:1;fill-rule:nonzero;stroke:none"
               id="path54" /></g><g
             id="g56"
             transform="translate(625.5048,200.7703)"><path
               d="m 0,0 c -0.138,0.801 -0.329,2.417 -0.705,3.989 -1.069,4.464 -4.983,7.902 -9.467,8.414 -5.306,0.605 -9.72,-1.672 -11.898,-6.166 -1.904,-3.928 -1.961,-8.017 -0.808,-12.125 1.979,-7.051 10.6,-10.413 16.892,-6.62 C -1.595,-9.861 -0.133,-5.681 0,0 M 14.577,-26.386 H -0.16 v 5.98 c -0.595,-0.353 -0.936,-0.45 -1.114,-0.676 -4.863,-6.162 -11.363,-7.522 -18.637,-6.114 -9.816,1.899 -15.568,8.244 -17.826,17.665 -1.912,7.975 -1.458,15.928 2.299,23.421 4.651,9.277 14.283,13.947 24.366,11.787 3.725,-0.798 6.844,-2.764 9.297,-5.721 0.22,-0.266 0.439,-0.534 0.687,-0.771 0.094,-0.09 0.268,-0.095 0.783,-0.258 0,1.45 0.089,2.791 -0.025,4.114 -0.121,1.415 0.342,1.87 1.795,1.833 3.855,-0.1 7.713,-0.034 11.57,-0.034 h 1.542 z"
               style="fill:#ff0d4d;fill-opacity:1;fill-rule:nonzero;stroke:none"
               id="path58" /></g><g
             id="g60"
             transform="translate(400.5004,199.9304)"><path
               d="m 0,0 c 0.276,-1.547 0.424,-3.129 0.848,-4.634 2.347,-8.324 13.232,-11.487 19.65,-5.7 4.351,3.924 5.228,8.934 3.913,14.37 C 22.472,12.048 13.427,15.915 6.344,11.748 1.954,9.166 0.119,5.051 0,0 m 11.99,-26.863 c -7.614,0.208 -14.402,2.555 -19.701,8.186 -6.737,7.159 -8.521,15.81 -6.501,25.188 2.451,11.38 11.659,19.108 23.253,20.239 6.596,0.644 12.874,-0.194 18.516,-3.737 C 35.325,18.135 39.466,10.991 39.98,1.792 40.33,-4.472 38.941,-10.29 35.393,-15.497 30.41,-22.811 21.446,-27.121 11.99,-26.863"
               style="fill:#ff0d4d;fill-opacity:1;fill-rule:nonzero;stroke:none"
               id="path62" /></g><g
             id="g64"
             transform="translate(338.4016,200.0462)"><path
               d="m 0,0 c 0.029,-0.633 0.012,-1.281 0.095,-1.915 0.639,-4.913 2.92,-8.799 7.676,-10.558 4.776,-1.766 9.389,-1.167 13.168,2.567 3.52,3.479 4.284,7.84 3.648,12.582 C 23.467,11.035 13.914,15.94 6.538,11.832 1.964,9.284 0.048,5.132 0,0 m 12.68,-27.028 c -9.285,0.327 -16.552,3.199 -22.012,9.891 -3.071,3.764 -4.854,8.128 -5.475,12.927 -0.957,7.388 0.408,14.272 4.848,20.379 4.406,6.063 10.538,9.255 17.819,10.354 5.525,0.833 11.022,0.454 16.126,-1.875 10.408,-4.749 15.657,-13.013 15.879,-24.451 0.231,-11.928 -6.862,-22.09 -17.953,-25.679 -1.543,-0.5 -3.145,-0.868 -4.747,-1.119 -1.75,-0.274 -3.533,-0.342 -4.485,-0.427"
               style="fill:#ff0d4d;fill-opacity:1;fill-rule:nonzero;stroke:none"
               id="path66" /></g><g
             id="g68"
             transform="translate(450.7687,225.5751)"><path
               d="m 0,0 h 14.041 v -5.804 c 0.623,0.397 0.996,0.518 1.188,0.774 3.859,5.152 9.228,6.695 15.326,6.304 7.675,-0.492 13.615,-5.146 15.637,-12.205 0.444,-1.552 0.774,-3.198 0.784,-4.803 0.071,-11.571 0.047,-23.143 0.05,-34.714 0,-0.193 -0.034,-0.387 -0.062,-0.682 H 31.966 v 1.706 c 0,8.901 0.007,17.802 -0.005,26.704 -0.004,2.234 -0.121,4.454 -1.393,6.423 -1.844,2.855 -4.584,3.811 -7.795,3.49 -3.685,-0.367 -6.073,-2.535 -7.154,-5.986 -0.478,-1.526 -0.625,-3.207 -0.636,-4.819 -0.06,-8.604 -0.028,-17.209 -0.029,-25.813 0,-0.537 10e-4,-1.074 10e-4,-1.71 H 0 Z"
               style="fill:#ff0d4d;fill-opacity:1;fill-rule:nonzero;stroke:none"
               id="path70" /></g><g
             id="g72"
             transform="translate(566.2416,174.3419)"><path
               d="m 0,0 c -5.592,0 -11.029,0.024 -16.464,-0.022 -0.991,-0.009 -1.092,0.636 -1.317,1.271 -2.491,7.027 -4.974,14.057 -7.468,21.083 -3.254,9.166 -6.517,18.33 -9.775,27.495 -0.145,0.409 -0.269,0.826 -0.445,1.367 0.48,0.058 0.849,0.141 1.218,0.142 4.35,0.01 8.702,-0.028 13.052,0.032 1.045,0.014 1.435,-0.374 1.736,-1.325 3.218,-10.166 6.481,-20.318 9.741,-30.47 0.186,-0.581 0.454,-1.135 0.866,-2.148 0.424,0.917 0.709,1.394 0.873,1.909 3.229,10.112 6.47,20.22 9.628,30.354 0.42,1.347 1.051,1.715 2.407,1.688 4.59,-0.088 9.183,-0.033 14.121,-0.033 C 12.074,34.113 6.055,17.106 0,0"
               style="fill:#ff0d4d;fill-opacity:1;fill-rule:nonzero;stroke:none"
               id="path74" /></g><g
             id="g76"
             transform="translate(666.1568,217.8475)"><path
               d="m 0,0 c 1.939,3.116 4.299,5.736 7.744,7.12 3.416,1.371 6.97,1.07 10.6,1.014 V -5.799 c -1.83,0 -3.553,-0.062 -5.271,0.011 C 5.2,-5.457 0.791,-11.276 0.566,-17.912 0.298,-25.81 0.398,-33.721 0.34,-41.626 0.335,-42.209 0.339,-42.791 0.339,-43.439 h -14.92 V 7.72 c 0.367,0.041 0.743,0.119 1.119,0.12 3.905,0.009 7.81,-0.023 11.713,0.026 1.018,0.012 1.398,-0.275 1.362,-1.334 C -0.459,4.436 -0.408,2.336 -0.408,0.237 -0.272,0.158 -0.136,0.079 0,0"
               style="fill:#ff0d4d;fill-opacity:1;fill-rule:nonzero;stroke:none"
               id="path78" /></g><g
             id="g80"
             transform="translate(516.0157,220.9385)"><path
               d="m 0,0 c 3.033,-0.122 5.82,-1.231 7.215,-4.399 1.262,-2.866 0.778,-5.617 -1.326,-7.995 -2.1,-2.373 -6.281,-3.116 -9.624,-1.754 -3.003,1.225 -4.797,3.901 -4.716,7.039 C -8.349,-3.186 -4.664,0.009 0,0"
               style="fill:#ff0d4d;fill-opacity:1;fill-rule:nonzero;stroke:none"
               id="path82" /></g><g
             id="g84"
             transform="translate(516.2114,173.1138)"><path
               d="m 0,0 c -6.074,0.027 -9.702,4.316 -8.369,9.279 0.835,3.109 3.908,5.332 7.667,5.409 C 2.325,14.75 4.972,13.855 6.607,11.082 8.087,8.572 8.075,5.97 6.578,3.496 4.986,0.865 2.362,0.116 0,0"
               style="fill:#ff0d4d;fill-opacity:1;fill-rule:nonzero;stroke:none"
               id="path86" /></g></g></g></g></g></svg>